<svg width="472" height="122" viewBox="0 0 472 122" fill="none" xmlns="http://www.w3.org/2000/svg"><g opacity=".5" fill="#7F7F7F"><circle cx="1" cy="121" r="1"/><circle cx="11" cy="121" r="1"/><circle cx="21" cy="121" r="1"/><circle cx="31" cy="121" r="1"/><circle cx="41" cy="121" r="1"/><circle cx="51" cy="121" r="1"/><circle cx="61" cy="121" r="1"/><circle cx="71" cy="121" r="1"/><circle cx="81" cy="121" r="1"/><circle cx="91" cy="121" r="1"/><circle cx="101" cy="121" r="1"/><circle cx="111" cy="121" r="1"/><circle cx="121" cy="121" r="1"/><circle cx="131" cy="121" r="1"/><circle cx="141" cy="121" r="1"/><circle cx="151" cy="121" r="1"/><circle cx="161" cy="121" r="1"/><circle cx="171" cy="121" r="1"/><circle cx="181" cy="121" r="1"/><circle cx="191" cy="121" r="1"/><circle cx="201" cy="121" r="1"/><circle cx="211" cy="121" r="1"/><circle cx="221" cy="121" r="1"/><circle cx="231" cy="121" r="1"/><circle cx="241" cy="121" r="1"/><circle cx="251" cy="121" r="1"/><circle cx="261" cy="121" r="1"/><circle cx="271" cy="121" r="1"/><circle cx="281" cy="121" r="1"/><circle cx="291" cy="121" r="1"/><circle cx="301" cy="121" r="1"/><circle cx="311" cy="121" r="1"/><circle cx="321" cy="121" r="1"/><circle cx="331" cy="121" r="1"/><circle cx="341" cy="121" r="1"/><circle cx="351" cy="121" r="1"/><circle cx="361" cy="121" r="1"/><circle cx="371" cy="121" r="1"/><circle cx="381" cy="121" r="1"/><circle cx="391" cy="121" r="1"/><circle cx="401" cy="121" r="1"/><circle cx="411" cy="121" r="1"/><circle cx="421" cy="121" r="1"/><circle cx="431" cy="121" r="1"/><circle cx="441" cy="121" r="1"/><circle cx="451" cy="121" r="1"/><circle cx="461" cy="121" r="1"/><circle cx="471" cy="121" r="1"/><circle cx="1" cy="111" r="1"/><circle cx="11" cy="111" r="1"/><circle cx="21" cy="111" r="1"/><circle cx="31" cy="111" r="1"/><circle cx="41" cy="111" r="1"/><circle cx="51" cy="111" r="1"/><circle cx="61" cy="111" r="1"/><circle cx="71" cy="111" r="1"/><circle cx="81" cy="111" r="1"/><circle cx="91" cy="111" r="1"/><circle cx="101" cy="111" r="1"/><circle cx="111" cy="111" r="1"/><circle cx="121" cy="111" r="1"/><circle cx="131" cy="111" r="1"/><circle cx="141" cy="111" r="1"/><circle cx="151" cy="111" r="1"/><circle cx="161" cy="111" r="1"/><circle cx="171" cy="111" r="1"/><circle cx="181" cy="111" r="1"/><circle cx="191" cy="111" r="1"/><circle cx="201" cy="111" r="1"/><circle cx="211" cy="111" r="1"/><circle cx="221" cy="111" r="1"/><circle cx="231" cy="111" r="1"/><circle cx="241" cy="111" r="1"/><circle cx="251" cy="111" r="1"/><circle cx="261" cy="111" r="1"/><circle cx="271" cy="111" r="1"/><circle cx="281" cy="111" r="1"/><circle cx="291" cy="111" r="1"/><circle cx="301" cy="111" r="1"/><circle cx="311" cy="111" r="1"/><circle cx="321" cy="111" r="1"/><circle cx="331" cy="111" r="1"/><circle cx="341" cy="111" r="1"/><circle cx="351" cy="111" r="1"/><circle cx="361" cy="111" r="1"/><circle cx="371" cy="111" r="1"/><circle cx="381" cy="111" r="1"/><circle cx="391" cy="111" r="1"/><circle cx="401" cy="111" r="1"/><circle cx="411" cy="111" r="1"/><circle cx="421" cy="111" r="1"/><circle cx="431" cy="111" r="1"/><circle cx="441" cy="111" r="1"/><circle cx="451" cy="111" r="1"/><circle cx="461" cy="111" r="1"/><circle cx="471" cy="111" r="1"/><circle cx="1" cy="101" r="1"/><circle cx="11" cy="101" r="1"/><circle cx="21" cy="101" r="1"/><circle cx="31" cy="101" r="1"/><circle cx="41" cy="101" r="1"/><circle cx="51" cy="101" r="1"/><circle cx="61" cy="101" r="1"/><circle cx="71" cy="101" r="1"/><circle cx="81" cy="101" r="1"/><circle cx="91" cy="101" r="1"/><circle cx="101" cy="101" r="1"/><circle cx="111" cy="101" r="1"/><circle cx="121" cy="101" r="1"/><circle cx="131" cy="101" r="1"/><circle cx="141" cy="101" r="1"/><circle cx="151" cy="101" r="1"/><circle cx="161" cy="101" r="1"/><circle cx="171" cy="101" r="1"/><circle cx="181" cy="101" r="1"/><circle cx="191" cy="101" r="1"/><circle cx="201" cy="101" r="1"/><circle cx="211" cy="101" r="1"/><circle cx="221" cy="101" r="1"/><circle cx="231" cy="101" r="1"/><circle cx="241" cy="101" r="1"/><circle cx="251" cy="101" r="1"/><circle cx="261" cy="101" r="1"/><circle cx="271" cy="101" r="1"/><circle cx="281" cy="101" r="1"/><circle cx="291" cy="101" r="1"/><circle cx="301" cy="101" r="1"/><circle cx="311" cy="101" r="1"/><circle cx="321" cy="101" r="1"/><circle cx="331" cy="101" r="1"/><circle cx="341" cy="101" r="1"/><circle cx="351" cy="101" r="1"/><circle cx="361" cy="101" r="1"/><circle cx="371" cy="101" r="1"/><circle cx="381" cy="101" r="1"/><circle cx="391" cy="101" r="1"/><circle cx="401" cy="101" r="1"/><circle cx="411" cy="101" r="1"/><circle cx="421" cy="101" r="1"/><circle cx="431" cy="101" r="1"/><circle cx="441" cy="101" r="1"/><circle cx="451" cy="101" r="1"/><circle cx="461" cy="101" r="1"/><circle cx="471" cy="101" r="1"/><circle cx="1" cy="91" r="1"/><circle cx="11" cy="91" r="1"/><circle cx="21" cy="91" r="1"/><circle cx="31" cy="91" r="1"/><circle cx="41" cy="91" r="1"/><circle cx="51" cy="91" r="1"/><circle cx="61" cy="91" r="1"/><circle cx="71" cy="91" r="1"/><circle cx="81" cy="91" r="1"/><circle cx="91" cy="91" r="1"/><circle cx="101" cy="91" r="1"/><circle cx="111" cy="91" r="1"/><circle cx="121" cy="91" r="1"/><circle cx="131" cy="91" r="1"/><circle cx="141" cy="91" r="1"/><circle cx="151" cy="91" r="1"/><circle cx="161" cy="91" r="1"/><circle cx="171" cy="91" r="1"/><circle cx="181" cy="91" r="1"/><circle cx="191" cy="91" r="1"/><circle cx="201" cy="91" r="1"/><circle cx="211" cy="91" r="1"/><circle cx="221" cy="91" r="1"/><circle cx="231" cy="91" r="1"/><circle cx="241" cy="91" r="1"/><circle cx="251" cy="91" r="1"/><circle cx="261" cy="91" r="1"/><circle cx="271" cy="91" r="1"/><circle cx="281" cy="91" r="1"/><circle cx="291" cy="91" r="1"/><circle cx="301" cy="91" r="1"/><circle cx="311" cy="91" r="1"/><circle cx="321" cy="91" r="1"/><circle cx="331" cy="91" r="1"/><circle cx="341" cy="91" r="1"/><circle cx="351" cy="91" r="1"/><circle cx="361" cy="91" r="1"/><circle cx="371" cy="91" r="1"/><circle cx="381" cy="91" r="1"/><circle cx="391" cy="91" r="1"/><circle cx="401" cy="91" r="1"/><circle cx="411" cy="91" r="1"/><circle cx="421" cy="91" r="1"/><circle cx="431" cy="91" r="1"/><circle cx="441" cy="91" r="1"/><circle cx="451" cy="91" r="1"/><circle cx="461" cy="91" r="1"/><circle cx="471" cy="91" r="1"/><circle cx="1" cy="81" r="1"/><circle cx="11" cy="81" r="1"/><circle cx="21" cy="81" r="1"/><circle cx="31" cy="81" r="1"/><circle cx="41" cy="81" r="1"/><circle cx="51" cy="81" r="1"/><circle cx="61" cy="81" r="1"/><circle cx="71" cy="81" r="1"/><circle cx="81" cy="81" r="1"/><circle cx="91" cy="81" r="1"/><circle cx="101" cy="81" r="1"/><circle cx="111" cy="81" r="1"/><circle cx="121" cy="81" r="1"/><circle cx="131" cy="81" r="1"/><circle cx="141" cy="81" r="1"/><circle cx="151" cy="81" r="1"/><circle cx="161" cy="81" r="1"/><circle cx="171" cy="81" r="1"/><circle cx="181" cy="81" r="1"/><circle cx="191" cy="81" r="1"/><circle cx="201" cy="81" r="1"/><circle cx="211" cy="81" r="1"/><circle cx="221" cy="81" r="1"/><circle cx="231" cy="81" r="1"/><circle cx="241" cy="81" r="1"/><circle cx="251" cy="81" r="1"/><circle cx="261" cy="81" r="1"/><circle cx="271" cy="81" r="1"/><circle cx="281" cy="81" r="1"/><circle cx="291" cy="81" r="1"/><circle cx="301" cy="81" r="1"/><circle cx="311" cy="81" r="1"/><circle cx="321" cy="81" r="1"/><circle cx="331" cy="81" r="1"/><circle cx="341" cy="81" r="1"/><circle cx="351" cy="81" r="1"/><circle cx="361" cy="81" r="1"/><circle cx="371" cy="81" r="1"/><circle cx="381" cy="81" r="1"/><circle cx="391" cy="81" r="1"/><circle cx="401" cy="81" r="1"/><circle cx="411" cy="81" r="1"/><circle cx="421" cy="81" r="1"/><circle cx="431" cy="81" r="1"/><circle cx="441" cy="81" r="1"/><circle cx="451" cy="81" r="1"/><circle cx="461" cy="81" r="1"/><circle cx="471" cy="81" r="1"/><circle cx="1" cy="71" r="1"/><circle cx="11" cy="71" r="1"/><circle cx="21" cy="71" r="1"/><circle cx="31" cy="71" r="1"/><circle cx="41" cy="71" r="1"/><circle cx="51" cy="71" r="1"/><circle cx="61" cy="71" r="1"/><circle cx="71" cy="71" r="1"/><circle cx="81" cy="71" r="1"/><circle cx="91" cy="71" r="1"/><circle cx="101" cy="71" r="1"/><circle cx="111" cy="71" r="1"/><circle cx="121" cy="71" r="1"/><circle cx="131" cy="71" r="1"/><circle cx="141" cy="71" r="1"/><circle cx="151" cy="71" r="1"/><circle cx="161" cy="71" r="1"/><circle cx="171" cy="71" r="1"/><circle cx="181" cy="71" r="1"/><circle cx="191" cy="71" r="1"/><circle cx="201" cy="71" r="1"/><circle cx="211" cy="71" r="1"/><circle cx="221" cy="71" r="1"/><circle cx="231" cy="71" r="1"/><circle cx="241" cy="71" r="1"/><circle cx="251" cy="71" r="1"/><circle cx="261" cy="71" r="1"/><circle cx="271" cy="71" r="1"/><circle cx="281" cy="71" r="1"/><circle cx="291" cy="71" r="1"/><circle cx="301" cy="71" r="1"/><circle cx="311" cy="71" r="1"/><circle cx="321" cy="71" r="1"/><circle cx="331" cy="71" r="1"/><circle cx="341" cy="71" r="1"/><circle cx="351" cy="71" r="1"/><circle cx="361" cy="71" r="1"/><circle cx="371" cy="71" r="1"/><circle cx="381" cy="71" r="1"/><circle cx="391" cy="71" r="1"/><circle cx="401" cy="71" r="1"/><circle cx="411" cy="71" r="1"/><circle cx="421" cy="71" r="1"/><circle cx="431" cy="71" r="1"/><circle cx="441" cy="71" r="1"/><circle cx="451" cy="71" r="1"/><circle cx="461" cy="71" r="1"/><circle cx="471" cy="71" r="1"/><circle cx="1" cy="61" r="1"/><circle cx="11" cy="61" r="1"/><circle cx="21" cy="61" r="1"/><circle cx="31" cy="61" r="1"/><circle cx="41" cy="61" r="1"/><circle cx="51" cy="61" r="1"/><circle cx="61" cy="61" r="1"/><circle cx="71" cy="61" r="1"/><circle cx="81" cy="61" r="1"/><circle cx="91" cy="61" r="1"/><circle cx="101" cy="61" r="1"/><circle cx="111" cy="61" r="1"/><circle cx="121" cy="61" r="1"/><circle cx="131" cy="61" r="1"/><circle cx="141" cy="61" r="1"/><circle cx="151" cy="61" r="1"/><circle cx="161" cy="61" r="1"/><circle cx="171" cy="61" r="1"/><circle cx="181" cy="61" r="1"/><circle cx="191" cy="61" r="1"/><circle cx="201" cy="61" r="1"/><circle cx="211" cy="61" r="1"/><circle cx="221" cy="61" r="1"/><circle cx="231" cy="61" r="1"/><circle cx="241" cy="61" r="1"/><circle cx="251" cy="61" r="1"/><circle cx="261" cy="61" r="1"/><circle cx="271" cy="61" r="1"/><circle cx="281" cy="61" r="1"/><circle cx="291" cy="61" r="1"/><circle cx="301" cy="61" r="1"/><circle cx="311" cy="61" r="1"/><circle cx="321" cy="61" r="1"/><circle cx="331" cy="61" r="1"/><circle cx="341" cy="61" r="1"/><circle cx="351" cy="61" r="1"/><circle cx="361" cy="61" r="1"/><circle cx="371" cy="61" r="1"/><circle cx="381" cy="61" r="1"/><circle cx="391" cy="61" r="1"/><circle cx="401" cy="61" r="1"/><circle cx="411" cy="61" r="1"/><circle cx="421" cy="61" r="1"/><circle cx="431" cy="61" r="1"/><circle cx="441" cy="61" r="1"/><circle cx="451" cy="61" r="1"/><circle cx="461" cy="61" r="1"/><circle cx="471" cy="61" r="1"/><circle cx="1" cy="51" r="1"/><circle cx="11" cy="51" r="1"/><circle cx="21" cy="51" r="1"/><circle cx="31" cy="51" r="1"/><circle cx="41" cy="51" r="1"/><circle cx="51" cy="51" r="1"/><circle cx="61" cy="51" r="1"/><circle cx="71" cy="51" r="1"/><circle cx="81" cy="51" r="1"/><circle cx="91" cy="51" r="1"/><circle cx="101" cy="51" r="1"/><circle cx="111" cy="51" r="1"/><circle cx="121" cy="51" r="1"/><circle cx="131" cy="51" r="1"/><circle cx="141" cy="51" r="1"/><circle cx="151" cy="51" r="1"/><circle cx="161" cy="51" r="1"/><circle cx="171" cy="51" r="1"/><circle cx="181" cy="51" r="1"/><circle cx="191" cy="51" r="1"/><circle cx="201" cy="51" r="1"/><circle cx="211" cy="51" r="1"/><circle cx="221" cy="51" r="1"/><circle cx="231" cy="51" r="1"/><circle cx="241" cy="51" r="1"/><circle cx="251" cy="51" r="1"/><circle cx="261" cy="51" r="1"/><circle cx="271" cy="51" r="1"/><circle cx="281" cy="51" r="1"/><circle cx="291" cy="51" r="1"/><circle cx="301" cy="51" r="1"/><circle cx="311" cy="51" r="1"/><circle cx="321" cy="51" r="1"/><circle cx="331" cy="51" r="1"/><circle cx="341" cy="51" r="1"/><circle cx="351" cy="51" r="1"/><circle cx="361" cy="51" r="1"/><circle cx="371" cy="51" r="1"/><circle cx="381" cy="51" r="1"/><circle cx="391" cy="51" r="1"/><circle cx="401" cy="51" r="1"/><circle cx="411" cy="51" r="1"/><circle cx="421" cy="51" r="1"/><circle cx="431" cy="51" r="1"/><circle cx="441" cy="51" r="1"/><circle cx="451" cy="51" r="1"/><circle cx="461" cy="51" r="1"/><circle cx="471" cy="51" r="1"/><circle cx="1" cy="41" r="1"/><circle cx="11" cy="41" r="1"/><circle cx="21" cy="41" r="1"/><circle cx="31" cy="41" r="1"/><circle cx="41" cy="41" r="1"/><circle cx="51" cy="41" r="1"/><circle cx="61" cy="41" r="1"/><circle cx="71" cy="41" r="1"/><circle cx="81" cy="41" r="1"/><circle cx="91" cy="41" r="1"/><circle cx="101" cy="41" r="1"/><circle cx="111" cy="41" r="1"/><circle cx="121" cy="41" r="1"/><circle cx="131" cy="41" r="1"/><circle cx="141" cy="41" r="1"/><circle cx="151" cy="41" r="1"/><circle cx="161" cy="41" r="1"/><circle cx="171" cy="41" r="1"/><circle cx="181" cy="41" r="1"/><circle cx="191" cy="41" r="1"/><circle cx="201" cy="41" r="1"/><circle cx="211" cy="41" r="1"/><circle cx="221" cy="41" r="1"/><circle cx="231" cy="41" r="1"/><circle cx="241" cy="41" r="1"/><circle cx="251" cy="41" r="1"/><circle cx="261" cy="41" r="1"/><circle cx="271" cy="41" r="1"/><circle cx="281" cy="41" r="1"/><circle cx="291" cy="41" r="1"/><circle cx="301" cy="41" r="1"/><circle cx="311" cy="41" r="1"/><circle cx="321" cy="41" r="1"/><circle cx="331" cy="41" r="1"/><circle cx="341" cy="41" r="1"/><circle cx="351" cy="41" r="1"/><circle cx="361" cy="41" r="1"/><circle cx="371" cy="41" r="1"/><circle cx="381" cy="41" r="1"/><circle cx="391" cy="41" r="1"/><circle cx="401" cy="41" r="1"/><circle cx="411" cy="41" r="1"/><circle cx="421" cy="41" r="1"/><circle cx="431" cy="41" r="1"/><circle cx="441" cy="41" r="1"/><circle cx="451" cy="41" r="1"/><circle cx="461" cy="41" r="1"/><circle cx="471" cy="41" r="1"/><circle cx="1" cy="31" r="1"/><circle cx="11" cy="31" r="1"/><circle cx="21" cy="31" r="1"/><circle cx="31" cy="31" r="1"/><circle cx="41" cy="31" r="1"/><circle cx="51" cy="31" r="1"/><circle cx="61" cy="31" r="1"/><circle cx="71" cy="31" r="1"/><circle cx="81" cy="31" r="1"/><circle cx="91" cy="31" r="1"/><circle cx="101" cy="31" r="1"/><circle cx="111" cy="31" r="1"/><circle cx="121" cy="31" r="1"/><circle cx="131" cy="31" r="1"/><circle cx="141" cy="31" r="1"/><circle cx="151" cy="31" r="1"/><circle cx="161" cy="31" r="1"/><circle cx="171" cy="31" r="1"/><circle cx="181" cy="31" r="1"/><circle cx="191" cy="31" r="1"/><circle cx="201" cy="31" r="1"/><circle cx="211" cy="31" r="1"/><circle cx="221" cy="31" r="1"/><circle cx="231" cy="31" r="1"/><circle cx="241" cy="31" r="1"/><circle cx="251" cy="31" r="1"/><circle cx="261" cy="31" r="1"/><circle cx="271" cy="31" r="1"/><circle cx="281" cy="31" r="1"/><circle cx="291" cy="31" r="1"/><circle cx="301" cy="31" r="1"/><circle cx="311" cy="31" r="1"/><circle cx="321" cy="31" r="1"/><circle cx="331" cy="31" r="1"/><circle cx="341" cy="31" r="1"/><circle cx="351" cy="31" r="1"/><circle cx="361" cy="31" r="1"/><circle cx="371" cy="31" r="1"/><circle cx="381" cy="31" r="1"/><circle cx="391" cy="31" r="1"/><circle cx="401" cy="31" r="1"/><circle cx="411" cy="31" r="1"/><circle cx="421" cy="31" r="1"/><circle cx="431" cy="31" r="1"/><circle cx="441" cy="31" r="1"/><circle cx="451" cy="31" r="1"/><circle cx="461" cy="31" r="1"/><circle cx="471" cy="31" r="1"/><circle cx="1" cy="21" r="1"/><circle cx="11" cy="21" r="1"/><circle cx="21" cy="21" r="1"/><circle cx="31" cy="21" r="1"/><circle cx="41" cy="21" r="1"/><circle cx="51" cy="21" r="1"/><circle cx="61" cy="21" r="1"/><circle cx="71" cy="21" r="1"/><circle cx="81" cy="21" r="1"/><circle cx="91" cy="21" r="1"/><circle cx="101" cy="21" r="1"/><circle cx="111" cy="21" r="1"/><circle cx="121" cy="21" r="1"/><circle cx="131" cy="21" r="1"/><circle cx="141" cy="21" r="1"/><circle cx="151" cy="21" r="1"/><circle cx="161" cy="21" r="1"/><circle cx="171" cy="21" r="1"/><circle cx="181" cy="21" r="1"/><circle cx="191" cy="21" r="1"/><circle cx="201" cy="21" r="1"/><circle cx="211" cy="21" r="1"/><circle cx="221" cy="21" r="1"/><circle cx="231" cy="21" r="1"/><circle cx="241" cy="21" r="1"/><circle cx="251" cy="21" r="1"/><circle cx="261" cy="21" r="1"/><circle cx="271" cy="21" r="1"/><circle cx="281" cy="21" r="1"/><circle cx="291" cy="21" r="1"/><circle cx="301" cy="21" r="1"/><circle cx="311" cy="21" r="1"/><circle cx="321" cy="21" r="1"/><circle cx="331" cy="21" r="1"/><circle cx="341" cy="21" r="1"/><circle cx="351" cy="21" r="1"/><circle cx="361" cy="21" r="1"/><circle cx="371" cy="21" r="1"/><circle cx="381" cy="21" r="1"/><circle cx="391" cy="21" r="1"/><circle cx="401" cy="21" r="1"/><circle cx="411" cy="21" r="1"/><circle cx="421" cy="21" r="1"/><circle cx="431" cy="21" r="1"/><circle cx="441" cy="21" r="1"/><circle cx="451" cy="21" r="1"/><circle cx="461" cy="21" r="1"/><circle cx="471" cy="21" r="1"/><circle cx="1" cy="11" r="1"/><circle cx="11" cy="11" r="1"/><circle cx="21" cy="11" r="1"/><circle cx="31" cy="11" r="1"/><circle cx="41" cy="11" r="1"/><circle cx="51" cy="11" r="1"/><circle cx="61" cy="11" r="1"/><circle cx="71" cy="11" r="1"/><circle cx="81" cy="11" r="1"/><circle cx="91" cy="11" r="1"/><circle cx="101" cy="11" r="1"/><circle cx="111" cy="11" r="1"/><circle cx="121" cy="11" r="1"/><circle cx="131" cy="11" r="1"/><circle cx="141" cy="11" r="1"/><circle cx="151" cy="11" r="1"/><circle cx="161" cy="11" r="1"/><circle cx="171" cy="11" r="1"/><circle cx="181" cy="11" r="1"/><circle cx="191" cy="11" r="1"/><circle cx="201" cy="11" r="1"/><circle cx="211" cy="11" r="1"/><circle cx="221" cy="11" r="1"/><circle cx="231" cy="11" r="1"/><circle cx="241" cy="11" r="1"/><circle cx="251" cy="11" r="1"/><circle cx="261" cy="11" r="1"/><circle cx="271" cy="11" r="1"/><circle cx="281" cy="11" r="1"/><circle cx="291" cy="11" r="1"/><circle cx="301" cy="11" r="1"/><circle cx="311" cy="11" r="1"/><circle cx="321" cy="11" r="1"/><circle cx="331" cy="11" r="1"/><circle cx="341" cy="11" r="1"/><circle cx="351" cy="11" r="1"/><circle cx="361" cy="11" r="1"/><circle cx="371" cy="11" r="1"/><circle cx="381" cy="11" r="1"/><circle cx="391" cy="11" r="1"/><circle cx="401" cy="11" r="1"/><circle cx="411" cy="11" r="1"/><circle cx="421" cy="11" r="1"/><circle cx="431" cy="11" r="1"/><circle cx="441" cy="11" r="1"/><circle cx="451" cy="11" r="1"/><circle cx="461" cy="11" r="1"/><circle cx="471" cy="11" r="1"/><circle cx="1" cy="1" r="1"/><circle cx="11" cy="1" r="1"/><circle cx="21" cy="1" r="1"/><circle cx="31" cy="1" r="1"/><circle cx="41" cy="1" r="1"/><circle cx="51" cy="1" r="1"/><circle cx="61" cy="1" r="1"/><circle cx="71" cy="1" r="1"/><circle cx="81" cy="1" r="1"/><circle cx="91" cy="1" r="1"/><circle cx="101" cy="1" r="1"/><circle cx="111" cy="1" r="1"/><circle cx="121" cy="1" r="1"/><circle cx="131" cy="1" r="1"/><circle cx="141" cy="1" r="1"/><circle cx="151" cy="1" r="1"/><circle cx="161" cy="1" r="1"/><circle cx="171" cy="1" r="1"/><circle cx="181" cy="1" r="1"/><circle cx="191" cy="1" r="1"/><circle cx="201" cy="1" r="1"/><circle cx="211" cy="1" r="1"/><circle cx="221" cy="1" r="1"/><circle cx="231" cy="1" r="1"/><circle cx="241" cy="1" r="1"/><circle cx="251" cy="1" r="1"/><circle cx="261" cy="1" r="1"/><circle cx="271" cy="1" r="1"/><circle cx="281" cy="1" r="1"/><circle cx="291" cy="1" r="1"/><circle cx="301" cy="1" r="1"/><circle cx="311" cy="1" r="1"/><circle cx="321" cy="1" r="1"/><circle cx="331" cy="1" r="1"/><circle cx="341" cy="1" r="1"/><circle cx="351" cy="1" r="1"/><circle cx="361" cy="1" r="1"/><circle cx="371" cy="1" r="1"/><circle cx="381" cy="1" r="1"/><circle cx="391" cy="1" r="1"/><circle cx="401" cy="1" r="1"/><circle cx="411" cy="1" r="1"/><circle cx="421" cy="1" r="1"/><circle cx="431" cy="1" r="1"/><circle cx="441" cy="1" r="1"/><circle cx="451" cy="1" r="1"/><circle cx="461" cy="1" r="1"/><circle cx="471" cy="1" r="1"/></g></svg>