<svg width="153" height="17" viewBox="0 0 153 17" fill="none" xmlns="http://www.w3.org/2000/svg"><g clip-path="url(#clip0)" fill-rule="evenodd" clip-rule="evenodd" fill="#D7D7D7"><path d="M.254 2.964C.689 1.91 1.47 1.138 2.454.783c.816-.294 2.4-.256 3.737.089.644.166 2.405.827 3.913 1.47 4.01 1.706 4.783 1.793 6.16.688.938-.752 1.263-.53.746.507-.64 1.28-1.88 2.106-3.33 2.218-1.633.125-2.718-.199-7.783-2.324-2.605-1.093-3.6-1.124-4.863-.15-.855.658-1.137.544-.78-.317zM61.869 5.49c.872-1.835 3.039-3.477 5.053-3.83 1.116-.196 2.927-.054 3.961.309 4.953 1.74 6.299 8.422 2.424 12.042-1.545 1.444-3.377 2.06-5.61 1.886-2.14-.166-3.872-1.107-5.143-2.794-1.584-2.1-1.858-5.148-.685-7.613zM25.33 4.26V1.8h7.465v2.46h-2.437v11.378h-2.59V4.258H25.33zm8.989 11.378V1.8h7.313v2.46h-4.876v3.23h4.571v2.46h-4.571v3.229h4.876v2.46h-7.313zm9.598 0V1.77l2.78.056c2.501.051 2.857.092 3.542.408.92.423 1.517.971 1.957 1.795.27.506.328.873.328 2.076 0 1.328-.039 1.528-.432 2.203-.458.788-1.44 1.53-2.38 1.799-.297.085-1.173.198-1.948.252l-1.41.098v5.181h-2.438zm10.36 0V1.8h2.59v11.378h4.113v2.46h-6.703zm18.708-7.127c-.118-2.179-1.293-3.71-3.31-4.312-2.332-.696-4.688.406-5.7 2.667-.436.973-.434 2.738.005 3.717.433.969 1.32 1.921 2.247 2.413.668.355.954.41 2.142.411 1.235.001 1.452-.044 2.182-.451.986-.552 1.627-1.264 2.125-2.362.329-.724.368-.99.309-2.083zM49.683 7.283c.76-.817.506-2.296-.476-2.766-.356-.171-.929-.258-1.7-.258h-1.162l.043 1.807.043 1.807.914.05c1.11.059 1.885-.153 2.338-.64zm-49.43.601C.69 6.832 1.47 6.06 2.456 5.704c.905-.327 2.573-.26 4.008.16.702.205 2.415.862 3.806 1.461 3.758 1.618 4.643 1.71 5.996.625.936-.751 1.262-.53.745.507-.64 1.28-1.88 2.107-3.33 2.218-1.637.126-2.702-.193-7.84-2.347-2.578-1.08-3.535-1.106-4.806-.126-.855.658-1.137.543-.78-.318zm-.003 4.93c.382-.923.988-1.597 1.82-2.024.734-.376.893-.399 2.312-.331 1.747.084 2.543.328 6.096 1.874 3.464 1.506 4.464 1.599 5.787.537.936-.75 1.262-.529.745.508-.349.698-1.1 1.464-1.811 1.845-.485.26-.875.326-1.905.324-1.614-.002-2.952-.37-5.582-1.535-4.317-1.913-5.268-2.026-6.79-.809-.74.592-1.013.434-.672-.39zM138.727 2.526c.004-.663.286-1.158.835-1.463.983-.545 2.362.294 2.362 1.436 0 .831-.8 1.615-1.649 1.615-.879 0-1.553-.691-1.548-1.588zM78.93 4.876c.865-1.724 2.646-3.12 4.587-3.593.508-.125 1.723-.224 2.817-.232 1.574-.01 2.193.057 3.412.369.819.21 1.504.4 1.523.423.018.023.07 1.031.116 2.241l.082 2.2-.537-.047c-.531-.047-.541-.06-.88-1.248-.575-2.018-1.673-2.805-3.887-2.788-1.365.01-2.263.363-3.118 1.226-2.046 2.065-2.047 6.997 0 9.062 1.803 1.82 4.708 1.92 7.87.271.058-.03.219.167.357.437.099.193.175.31.163.419-.024.216-.408.391-1.695 1.044-4.331 2.197-9.248 1.03-10.945-2.597-.966-2.065-.909-5.109.135-7.188zm14.393 6.08c0-2.664 1.322-4.618 3.533-5.218 2.536-.689 4.396.373 4.74 2.705.068.461.015.625-.298.922-.358.34-.521.366-2.844.438l-2.464.077.044.77c.054.935.706 2.327 1.292 2.755.67.489 1.844.42 2.968-.174l.912-.483.191.358c.104.197.142.434.085.528-.139.227-1.68 1.274-2.477 1.683-.93.477-2.641.463-3.563-.028-1.35-.72-2.119-2.29-2.119-4.332zm45.287-4.368c.691-.187 1.565-.506 1.942-.708.565-.303.68-.378.781-.363.045.007.088.032.166.062.174.068.199.802.146 4.229-.049 3.158-.019 4.201.125 4.377.104.126.456.31.781.409.442.133.592.26.592.5-.001.315-.06.322-2.896.322-2.856 0-2.894-.004-2.894-.33 0-.23.124-.36.419-.433a2.95 2.95 0 00.762-.328c.337-.22.342-.276.342-3.366 0-3.016-.013-3.15-.313-3.313-.173-.093-.516-.125-.762-.07-.4.088-.448.059-.448-.274 0-.338.121-.406 1.257-.714zm5.487 4.924c-.193-2.838 1.318-5.22 3.678-5.798 1.062-.26 1.609-.256 2.822.023.817.187 1.224.28 1.389.532.165.255.083.672-.079 1.512-.265 1.374-.28 1.407-.698 1.407-.395 0-.44-.064-.599-.832-.354-1.724-1.647-2.282-2.875-1.24-.678.577-.988 1.674-.904 3.205.152 2.792 1.803 3.994 4.111 2.991.751-.326.778-.327.981-.047.306.422.277.482-.516 1.072-1.289.959-2.134 1.31-3.152 1.309-1.291-.002-1.92-.216-2.719-.926-.943-.837-1.337-1.717-1.439-3.208zm-40.49-4.868c.67-.195 1.527-.494 1.905-.665 1.085-.49 1.15-.433 1.095.985l-.046 1.225.41-.615c.641-.96 1.138-1.44 1.676-1.619.593-.198 1.536.007 1.464.318-.026.112-.128.71-.225 1.33-.156.985-.217 1.124-.5 1.124-.195 0-.389-.15-.495-.384-.381-.845-1.538-.27-2.077 1.033-.305.74-.343 4.608-.045 4.852.104.086.481.244.837.35.494.149.647.27.647.516 0 .316-.057.322-2.97.322-2.913 0-2.971-.006-2.971-.322 0-.24.15-.367.592-.5.325-.099.667-.271.76-.384.217-.264.388-4.863.217-5.79l-.129-.692-.729-.048c-.639-.041-.724-.087-.683-.364.039-.252.296-.388 1.267-.672zm7.874 1.096c.208-1.352.318-1.458 1.913-1.848 1.412-.345 2.9-.303 3.699.106 1.187.607 1.286.94 1.332 4.497.045 3.479.094 3.633 1.021 3.242.444-.188.506-.179.676.098.104.167.166.321.14.343-.582.468-1.862 1.205-2.306 1.326-.784.215-1.559-.047-1.857-.629l-.225-.438-.857.521c-1.944 1.182-3.681.69-4.181-1.182-.213-.803.04-1.952.555-2.513.203-.22 1.301-.858 2.441-1.416l2.073-1.016-.083-.628c-.156-1.172-1.282-1.673-2.321-1.033-.262.161-.661.662-.912 1.146-.399.769-.487.85-.829.768a2.868 2.868 0 01-.423-.124c-.021-.017.043-.566.144-1.22zm10.153-1.109c.698-.203 1.52-.504 1.828-.67.308-.166.697-.286.865-.267.266.03.3.136.271.842-.018.444 0 .807.039.807s.351-.283.694-.628c.743-.751 1.422-1.063 2.307-1.063.891 0 1.64.44 2.036 1.195l.327.625.587-.605c1.462-1.512 3.542-1.623 4.545-.243.292.402.319.684.368 3.844.03 1.876.117 3.529.193 3.674.078.145.414.346.747.447.456.138.608.263.608.505 0 .314-.063.322-2.667.322-2.635 0-2.667-.004-2.667-.334 0-.244.141-.381.521-.507.285-.096.56-.28.609-.41.049-.13.088-1.423.087-2.875-.002-2.86-.084-3.23-.8-3.635-.383-.216-.462-.21-.987.073-.971.522-1.104 1-1.104 3.962l-.001 2.578.533.256c.355.171.534.363.534.574 0 .308-.077.318-2.438.318-2.394 0-2.438-.006-2.438-.331 0-.23.14-.38.458-.492.268-.094.521-.329.61-.563.242-.643.192-5.06-.064-5.68-.617-1.49-2.439-.794-2.695 1.03-.169 1.196-.16 4.187.015 4.65.088.235.342.469.609.563.318.112.457.262.457.492 0 .326-.038.33-2.666.33-2.603 0-2.666-.007-2.666-.32 0-.243.151-.368.607-.506.334-.1.677-.315.762-.476.23-.432.204-6.043-.028-6.278-.1-.101-.448-.184-.772-.184-.515 0-.584-.042-.541-.326.039-.264.286-.394 1.317-.694zM98.96 8.346c0-.645-.336-1.319-.77-1.546-.563-.293-.732-.284-1.305.068-.712.439-1.085 1.723-.559 1.927.144.056.795.054 1.448-.003 1.093-.097 1.186-.132 1.186-.446zm14.624 5.064c.372.988 1.817.763 2.137-.333.093-.32.148-1.157.122-1.858l-.047-1.276-.969.592c-.534.326-1.062.761-1.176.968-.245.446-.277 1.351-.067 1.907z"/></g><defs><clipPath id="clip0"><path fill="#fff" transform="translate(.103 .585)" d="M0 0h152v16H0z"/></clipPath></defs></svg>